<?xml version="1.0" standalone="no"?>
<!DOCTYPE svg PUBLIC "-//W3C//DTD SVG 20010904//EN"
 "http://www.w3.org/TR/2001/REC-SVG-20010904/DTD/svg10.dtd">
<svg version="1.0" xmlns="http://www.w3.org/2000/svg"
 width="700.000000pt" height="700.000000pt" viewBox="0 0 700.000000 700.000000"
 preserveAspectRatio="xMidYMid meet">
<metadata>
Created by potrace 1.11, written by Peter Selinger 2001-2013
</metadata>
<g transform="translate(0.000000,700.000000) scale(0.100000,-0.100000)"
fill="#000000" stroke="none">
<path d="M523 6354 c-296 -64 -510 -318 -518 -614 -3 -104 13 -200 45 -267 11
-23 20 -45 20 -48 0 -9 52 -87 88 -132 68 -87 203 -172 327 -208 78 -22 216
-26 302 -9 140 28 307 136 394 254 140 189 163 465 57 675 -83 165 -241 294
-418 340 -83 22 -217 26 -297 9z m229 -209 c105 -23 227 -113 282 -208 163
-283 -29 -642 -352 -661 -176 -10 -344 88 -420 244 -70 145 -61 302 27 438 97
149 285 225 463 187z"/>
<path d="M2477 5815 c-82 -27 -95 -143 -21 -191 26 -18 129 -18 2233 -19 1242
0 2218 3 2233 8 92 29 100 152 13 200 -27 15 -4413 17 -4458 2z"/>
<path d="M533 4110 c-131 -27 -237 -84 -334 -180 -78 -78 -134 -165 -163 -256
-25 -77 -28 -92 -30 -184 -16 -495 494 -824 939 -605 167 82 302 252 345 435
19 79 17 232 -3 309 -63 233 -254 421 -484 474 -70 16 -207 20 -270 7z m263
-226 c65 -22 146 -76 190 -128 205 -237 104 -605 -194 -705 -116 -39 -268 -22
-370 43 -95 60 -177 177 -199 286 -48 231 105 464 337 517 67 15 171 9 236
-13z"/>
<path d="M2464 3562 c-53 -24 -73 -98 -43 -154 5 -10 23 -25 40 -34 27 -14
252 -15 2244 -15 2078 -1 2215 0 2240 17 65 42 69 134 7 179 -27 20 -44 20
-2242 21 -1934 1 -2219 -1 -2246 -14z"/>
<path d="M530 1925 c-134 -30 -230 -80 -322 -167 -143 -137 -212 -306 -203
-502 15 -343 294 -617 630 -620 116 -1 173 8 258 44 248 103 401 319 412 582
12 301 -183 568 -479 653 -74 21 -223 26 -296 10z m252 -219 c173 -50 300
-212 311 -397 15 -238 -176 -451 -416 -463 -289 -14 -514 254 -450 537 56 247
310 395 555 323z"/>
<path d="M2477 1385 c-82 -27 -95 -143 -21 -192 27 -17 121 -18 2233 -18 1237
-1 2217 3 2231 8 89 31 104 134 27 191 l-28 21 -2206 0 c-1445 0 -2216 -3
-2236 -10z"/>
</g>
</svg>
